<?xml version="1.0" encoding="iso-8859-1"?>
<!-- Generator: Adobe Illustrator 19.0.0, SVG Export Plug-In . SVG Version: 6.00 Build 0)  -->
<svg version="1.1" id="Layer_1" xmlns="http://www.w3.org/2000/svg" xmlns:xlink="http://www.w3.org/1999/xlink" x="0px" y="0px"
	 viewBox="0 0 297 297" style="enable-background:new 0 0 297 297;" xml:space="preserve">
<g>
	<g>
		<g>
			<circle style="fill:#FFA800;" cx="148.5" cy="148.5" r="148.5"/>
		</g>
	</g>
	<path style="fill:#CE8400;" d="M194.986,65.805l-91.021,197.477l33.297,33.297c3.71,0.278,7.457,0.421,11.238,0.421
		c75.859,0,138.426-56.883,147.391-130.321L194.986,65.805z"/>
	<g>
		<path style="fill:#79302A;" d="M148.5,69.5c-0.896,0-1.791-0.342-2.475-1.025L114.05,36.5H82.5c-1.933,0-3.5-1.567-3.5-3.5
			s1.567-3.5,3.5-3.5h34.45l34.024,34.025c1.367,1.366,1.367,3.583,0,4.949C150.291,69.158,149.396,69.5,148.5,69.5z"/>
	</g>
	<g>
		<path style="fill:#D0D5D9;" d="M201.933,80.866l-5.831-13.256c-1.105-2.512-3.363-4.098-5.834-4.098h-83.537
			c-2.47,0-4.729,1.587-5.834,4.098l-5.831,13.256H201.933z"/>
	</g>
	<g>
		<path style="fill:#D0D5D9;" d="M95.067,246.645l5.831,13.256c1.105,2.512,3.363,4.098,5.834,4.098h83.538
			c2.47,0,4.729-1.587,5.834-4.098l5.831-13.256H95.067z"/>
	</g>
	<g>
		<path style="fill:#C63C22;" d="M96.002,248.244h104.995c3.039,0,5.502-2.463,5.502-5.502V84.77c0-3.039-2.463-5.502-5.502-5.502
			H96.002c-3.039,0-5.502,2.463-5.502,5.502v157.972C90.5,245.78,92.963,248.244,96.002,248.244z"/>
	</g>
	<g>
		<path style="fill:#B3B7BA;" d="M196.102,67.61c-1.105-2.512-3.363-4.099-5.834-4.099h-41.602v17.354h53.266L196.102,67.61z"/>
	</g>
	<g>
		<path style="fill:#B3B7BA;" d="M148.667,246.646V264h41.602c2.47,0,4.729-1.587,5.834-4.098l5.831-13.256L148.667,246.646
			L148.667,246.646z"/>
	</g>
	<g>
		<path style="fill:#9E231D;" d="M200.998,79.267h-52.331v168.976h52.331c3.039,0,5.502-2.463,5.502-5.502V84.77
			C206.5,81.731,204.037,79.267,200.998,79.267z"/>
	</g>
	<g>
		<circle style="fill:#D0D5D9;" cx="148.5" cy="161.244" r="25.118"/>
	</g>
	<g>
		<path style="fill:#B3B7BA;" d="M173.618,161.244c0-13.816-11.156-25.023-24.951-25.114v50.228
			C162.462,186.267,173.618,175.06,173.618,161.244z"/>
	</g>
</g>
<g>
</g>
<g>
</g>
<g>
</g>
<g>
</g>
<g>
</g>
<g>
</g>
<g>
</g>
<g>
</g>
<g>
</g>
<g>
</g>
<g>
</g>
<g>
</g>
<g>
</g>
<g>
</g>
<g>
</g>
</svg>
