<?xml version="1.0" encoding="iso-8859-1"?>
<!-- Generator: Adobe Illustrator 16.0.0, SVG Export Plug-In . SVG Version: 6.00 Build 0)  -->
<!DOCTYPE svg PUBLIC "-//W3C//DTD SVG 1.1//EN" "http://www.w3.org/Graphics/SVG/1.1/DTD/svg11.dtd">
<svg xmlns="http://www.w3.org/2000/svg" xmlns:xlink="http://www.w3.org/1999/xlink" version="1.1" id="Layer_1" x="0px" y="0px" width="512" height="512" viewBox="0 0 330.001 330.002" style="enable-background:new 0 0 330.001 330.002;" xml:space="preserve">
<g>
	<g>
		<path style="fill:#FFB65B;" d="M323.485,72.811c-30.264-20.76-62.5-35.075-95.805-42.549c-18.754-4.217-38.24-6.354-57.923-6.354    c-15.288,0.001-31.067,1.289-46.897,3.834c-3.346,0.539-6.32,2.176-8.543,4.539c-1.803,1.914-3.111,4.306-3.711,6.984    c-4.002,17.807-2.359,42.076,4.881,72.133c0.191,0.801,0.451,1.582,0.771,2.34l53.242,125.654c1.776,4.189,5.358,7.35,9.74,8.584    c1.34,0.378,2.709,0.563,4.07,0.563c3.094,0,6.148-0.958,8.72-2.796c26.542-18.959,51.976-40.525,73.534-62.215    c6.148-6.186,12-12.383,17.451-18.531c17.979-20.275,40.662-50.016,46.619-76.529C330.981,82.48,328.544,76.279,323.485,72.811z"/>
		<path style="fill:#FFA828;" d="M283.017,164.998c17.979-20.275,40.662-50.016,46.619-76.529c1.346-5.988-1.092-12.189-6.15-15.658    c-30.264-20.76-62.5-35.075-95.805-42.549c-18.754-4.217-38.24-6.354-57.923-6.354c-15.288,0.001-31.067,1.289-46.897,3.834    c-3.346,0.539-6.32,2.176-8.543,4.539l151.248,151.248C271.714,177.344,277.565,171.146,283.017,164.998z"/>
		<path style="fill:#FFDE51;" d="M218.139,87.955C218.139,87.955,218.139,87.955,218.139,87.955    c-3.009-3.006-7.151-4.602-11.396-4.371c-42.196,2.223-85.252,9.123-121.236,19.432c-26.317,7.537-61.757,20.59-81.114,39.95    c-4.338,4.338-5.595,10.878-3.176,16.518c14.463,33.721,34.037,63.062,58.182,87.206c0.002,0.001,0.002,0.003,0.002,0.003    c24.155,24.156,53.498,43.734,87.213,58.188c1.904,0.817,3.913,1.216,5.904,1.214c3.902,0,7.74-1.522,10.611-4.395    c19.357-19.355,32.406-54.795,39.945-81.116c10.308-35.981,17.211-79.036,19.437-121.231    C222.733,95.105,221.145,90.961,218.139,87.955z"/>
		<path style="fill:#FFD400;" d="M203.073,220.583c10.308-35.981,17.211-79.036,19.437-121.231    c0.224-4.246-1.365-8.391-4.371-11.396c0,0,0,0-0.001,0L59.399,246.693c24.155,24.155,53.498,43.733,87.213,58.187    c1.904,0.817,3.913,1.216,5.904,1.214c3.902,0,7.74-1.522,10.611-4.395C182.485,282.344,195.534,246.904,203.073,220.583z"/>
		<g>
			<g>
				<g>
					<line style="fill:#ECB45C;" x1="151.265" y1="159.828" x2="151.265" y2="159.828"/>
				</g>
				<g>
					<line style="fill:#ECB45C;" x1="131.265" y1="219.826" x2="131.265" y2="219.826"/>
				</g>
			</g>
		</g>
	</g>
	<path style="fill:#FFA828;" d="M151.269,174.828c-3.95-0.002-7.82-1.6-10.61-4.389c-2.79-2.802-4.39-6.66-4.392-10.611   c0.002-3.95,1.602-7.82,4.392-10.609c2.789-2.791,6.66-4.391,10.61-4.391c3.939,0,7.811,1.602,10.6,4.391   c2.799,2.791,4.4,6.66,4.4,10.609s-1.602,7.82-4.4,10.609C159.079,173.229,155.219,174.828,151.269,174.828z"/>
	<path style="fill:#FFA828;" d="M131.269,234.828c-3.951,0-7.82-1.6-10.609-4.39c-2.791-2.802-4.391-6.659-4.391-10.61   c0-3.947,1.601-7.811,4.39-10.609c2.79-2.791,6.661-4.391,10.61-4.391c3.95,0,7.809,1.6,10.6,4.391   c2.801,2.791,4.4,6.658,4.4,10.609c0,3.949-1.6,7.81-4.4,10.609C139.079,233.228,135.219,234.828,131.269,234.828z"/>
</g>















</svg>
