<?xml version="1.0" encoding="iso-8859-1"?>
<!-- Generator: Adobe Illustrator 19.0.0, SVG Export Plug-In . SVG Version: 6.00 Build 0)  -->
<svg version="1.1" id="Layer_1" xmlns="http://www.w3.org/2000/svg" xmlns:xlink="http://www.w3.org/1999/xlink" x="0px" y="0px"
	 viewBox="0 0 512.19 512.19" style="enable-background:new 0 0 512.19 512.19;" xml:space="preserve">
<g transform="translate(1 1)">
	<path style="fill:#54C9FD;" d="M289.228,41.667h-68.267V24.6c0-9.387,7.68-17.067,17.067-17.067h34.133
		c9.387,0,17.067,7.68,17.067,17.067V41.667z"/>
	<polygon style="fill:#FD9808;" points="246.561,306.2 323.362,306.2 323.362,186.733 246.561,186.733 	"/>
	<polygon style="fill:#FFFFFF;" points="186.828,306.2 263.628,306.2 263.628,186.733 186.828,186.733 	"/>
	<polygon style="fill:#FFDD09;" points="212.428,306.2 297.762,306.2 297.762,186.733 212.428,186.733 	"/>
	<path style="fill:#54C9FD;" d="M289.228,246.467c0-18.773-15.36-34.133-34.133-34.133s-34.133,15.36-34.133,34.133
		s15.36,34.133,34.133,34.133S289.228,265.24,289.228,246.467"/>
	<path style="fill:#FD9808;" d="M323.362,306.2H186.828c0,11.947,8.533,42.667,8.533,76.8s-8.533,51.2-8.533,76.8
		s27.307,66.56,51.2,25.6c0,11.947,8.533,17.067,17.067,17.067s17.067-5.973,17.067-17.067c23.893,40.96,51.2,0,51.2-25.6
		s-8.533-42.667-8.533-76.8S323.362,318.147,323.362,306.2"/>
	<path style="fill:#FFDD09;" d="M297.762,306.2H186.828c0,11.947,6.827,42.667,6.827,76.8s-6.827,51.2-6.827,76.8
		s22.187,66.56,41.813,25.6c0,11.947,6.827,17.067,13.653,17.067c43.52,0,55.467-17.067,55.467-42.667s-6.827-42.667-6.827-76.8
		S297.762,318.147,297.762,306.2"/>
	<path style="fill:#FFFFFF;" d="M186.828,306.2h25.6c0,11.947,6.827,42.667,6.827,76.8s-6.827,51.2-6.827,76.8
		c0,15.36,4.267,28.16,17.92,35.84c-22.187,22.187-43.52-12.8-43.52-35.84c0-25.6,8.533-42.667,8.533-76.8
		S186.828,318.147,186.828,306.2"/>
	<path style="fill:#FD9808;" d="M323.362,186.733H186.828c0-33.28,11.947-64.853,32.427-90.453
		c6.827-7.68,10.24-17.067,10.24-27.307V41.667h51.2v27.307c0,10.24,3.413,19.627,10.24,27.307
		C311.415,121.88,323.362,153.453,323.362,186.733"/>
	<path style="fill:#FFDD09;" d="M297.762,186.733h-102.4c0-33.28,8.533-64.853,24.747-90.453c5.12-7.68,7.68-17.067,7.68-27.307
		V41.667h38.4v27.307c0,10.24,2.56,19.627,7.68,27.307C289.228,121.88,297.762,153.453,297.762,186.733"/>
	<path d="M289.228,50.2h-68.267c-5.12,0-8.533-3.413-8.533-8.533V24.6c0-14.507,11.093-25.6,25.6-25.6h34.133
		c14.507,0,25.6,11.093,25.6,25.6v17.067C297.762,46.787,294.348,50.2,289.228,50.2z M229.495,33.133h51.2V24.6
		c0-5.12-3.413-8.533-8.533-8.533h-34.133c-5.12,0-8.533,3.413-8.533,8.533V33.133z"/>
	<path d="M323.362,195.267H186.828c-5.12,0-8.533-3.413-8.533-8.533c0-34.987,11.947-69.12,34.987-95.573
		c5.12-6.827,7.68-14.507,7.68-22.187V41.667c0-5.12,3.413-8.533,8.533-8.533h51.2c5.12,0,8.533,3.413,8.533,8.533v27.307
		c0,7.68,2.56,15.36,7.68,22.187c23.04,26.453,34.987,60.587,34.987,95.573C331.895,191.853,328.482,195.267,323.362,195.267z
		 M195.361,178.2h119.467c-1.707-28.16-12.8-54.613-30.72-76.8c-7.68-8.533-11.947-20.48-11.947-32.427V50.2h-34.133v18.773
		c0,11.947-4.267,23.893-11.947,32.427C208.161,123.587,197.068,150.04,195.361,178.2z"/>
	<path d="M323.362,314.733H186.828c-5.12,0-8.533-3.413-8.533-8.533V186.733c0-5.12,3.413-8.533,8.533-8.533h136.533
		c5.12,0,8.533,3.413,8.533,8.533V306.2C331.895,311.32,328.482,314.733,323.362,314.733z M195.361,297.667h119.467v-102.4H195.361
		V297.667z"/>
	<path d="M294.348,511c-5.12,0-12.8-1.707-19.627-8.533l-0.853,0.853c-5.12,5.12-11.093,7.68-18.773,7.68
		c-7.68,0-13.653-2.56-18.773-7.68l-0.853-0.853c-10.24,10.24-20.48,9.387-25.6,7.68c-18.773-5.12-31.573-30.72-31.573-50.347
		c0-12.8,1.707-23.04,4.267-34.133c1.707-12.8,4.267-25.6,4.267-42.667c0-20.48-3.413-40.96-5.973-55.467
		c-1.707-9.387-2.56-16.213-2.56-21.333s3.413-8.533,8.533-8.533h136.533c5.12,0,8.533,3.413,8.533,8.533s-0.853,11.947-2.56,21.333
		c-2.56,14.507-5.973,34.133-5.973,55.467c0,17.067,2.56,29.867,4.267,42.667c1.707,11.093,4.267,21.333,4.267,34.133
		c0,19.627-12.8,45.227-30.72,50.347C298.615,511,296.908,511,294.348,511z M196.215,314.733c0.853,3.413,0.853,6.827,1.707,10.24
		c2.56,15.36,5.973,35.84,5.973,58.027c0,18.773-2.56,33.28-5.12,45.227c-1.707,11.093-3.413,20.48-3.413,31.573
		c0,13.653,9.387,31.573,18.773,34.133c6.827,1.707,13.653-7.68,17.067-12.8c1.707-3.413,5.973-5.12,9.387-4.267
		c3.413,0.853,5.973,4.267,5.973,8.533c0,2.56,0.853,5.12,1.707,5.973c1.707,1.707,4.267,2.56,6.827,2.56
		c2.56,0,5.12-0.853,6.827-2.56c0.853-0.853,1.707-3.413,1.707-5.973c0-4.267,2.56-7.68,5.973-8.533
		c3.413-0.853,7.68,0.853,9.387,4.267c3.413,5.973,10.24,15.36,17.067,12.8c8.533-2.56,18.773-20.48,18.773-34.133
		c0-11.093-1.707-20.48-3.413-31.573c-2.56-11.947-5.12-26.453-5.12-45.227c0-22.187,3.413-42.667,5.973-58.027
		c0.853-3.413,0.853-6.827,1.707-10.24H196.215z"/>
	<path d="M255.095,289.133c-23.893,0-42.667-18.773-42.667-42.667s18.773-42.667,42.667-42.667s42.667,18.773,42.667,42.667
		S278.988,289.133,255.095,289.133z M255.095,220.867c-14.507,0-25.6,11.093-25.6,25.6c0,14.507,11.093,25.6,25.6,25.6
		s25.6-11.093,25.6-25.6C280.695,231.96,269.602,220.867,255.095,220.867z"/>
</g>
<g>
</g>
<g>
</g>
<g>
</g>
<g>
</g>
<g>
</g>
<g>
</g>
<g>
</g>
<g>
</g>
<g>
</g>
<g>
</g>
<g>
</g>
<g>
</g>
<g>
</g>
<g>
</g>
<g>
</g>
</svg>
